<svg width="128" height="94" viewBox="0 0 128 94" fill="none" xmlns="http://www.w3.org/2000/svg">
<path d="M92.01 76.5577H74.553C73.4719 76.5577 72.4709 75.9972 71.9504 75.0363L63.2219 59.9415C62.7014 59.0206 62.7014 57.8595 63.2219 56.9386L71.9504 41.8439C72.4709 40.923 73.4719 40.3224 74.553 40.3224H92.01C93.0911 40.3224 94.092 40.8829 94.6125 41.8439L103.341 56.9386C103.862 57.8595 103.862 59.0206 103.341 59.9415L94.6125 75.0363C94.092 75.9571 93.0911 76.5577 92.01 76.5577ZM76.3147 70.5519H90.2883L97.2952 58.4601L90.2883 46.3683H76.3147L69.3079 58.42L76.3147 70.5519Z" fill="#D8E176"/>
<path d="M92.0098 77.1586H74.5527C73.2314 77.1586 72.0303 76.4379 71.4297 75.3168L62.7012 60.222C62.0605 59.101 62.0605 57.7396 62.7012 56.6185L71.4297 41.5238C72.0703 40.4027 73.2715 39.722 74.5527 39.722H92.0098C93.3311 39.722 94.5322 40.4427 95.1328 41.5638L103.861 56.6586C104.502 57.7797 104.502 59.141 103.861 60.2621L95.1328 75.3568C94.4922 76.4779 93.291 77.1586 92.0098 77.1586ZM74.5527 40.9232C73.7119 40.9232 72.8711 41.4037 72.4707 42.1244L63.7422 57.2191C63.3418 57.9398 63.3418 58.9008 63.7422 59.6215L72.4707 74.7162C72.8711 75.4769 73.6719 75.9574 74.5527 75.9574H92.0098C92.8506 75.9574 93.6914 75.4769 94.0918 74.7562L102.82 59.6615C103.221 58.9408 103.221 57.9799 102.82 57.2592L94.0918 42.1644C93.6914 41.4037 92.8906 40.9232 92.0098 40.9232H74.5527ZM90.6484 71.1527H75.9541L68.627 58.4203L75.9941 45.7679H90.6484L98.0156 58.4603L90.6484 71.1527ZM76.6748 69.9515H89.9678L96.6143 58.4603L89.9678 46.9691H76.6748L69.9883 58.4203L76.6748 69.9515Z" fill="#D8E176"/>
<path d="M49.0481 45.5276H31.5911C30.51 45.5276 29.509 44.967 28.9885 44.0061L20.26 28.9114C19.7395 27.9905 19.7395 26.8293 20.26 25.9084L28.9885 10.8137C29.509 9.89282 30.51 9.29224 31.5911 9.29224H49.0481C50.1291 9.29224 51.1301 9.85278 51.6506 10.8137L60.3391 25.9084C60.8596 26.8293 60.8596 27.9905 60.3391 28.9114L51.6506 44.0061C51.0901 44.967 50.0891 45.5276 49.0481 45.5276ZM33.3127 39.5217H47.2864L54.2932 27.4299L47.2864 15.3381H33.3127L26.3059 27.4299L33.3127 39.5217Z" fill="#D8E176"/>
<path d="M49.0481 46.128H31.5911C30.2698 46.128 29.0686 45.4073 28.468 44.2863L19.7395 29.1915C19.0989 28.0704 19.0989 26.7091 19.7395 25.588L28.468 10.4933C29.1086 9.37219 30.3098 8.69153 31.5911 8.69153H49.0481C50.3694 8.69153 51.5705 9.41223 52.1711 10.5333L60.8596 25.628C61.5002 26.7491 61.5002 28.1105 60.8596 29.2316L52.1711 44.3263C51.5305 45.4474 50.3293 46.128 49.0481 46.128ZM31.5911 9.8927C30.7502 9.8927 29.9094 10.3732 29.509 11.0939L20.7805 26.1886C20.3801 26.9093 20.3801 27.8702 20.7805 28.5909L29.509 43.6857C29.9094 44.4464 30.7102 44.9269 31.5911 44.9269H49.0481C49.8889 44.9269 50.6897 44.4464 51.1301 43.6857L59.8186 28.5909C60.219 27.8702 60.219 26.9093 59.8186 26.1886L51.1301 11.0939C50.7297 10.3331 49.9289 9.8927 49.0481 9.8927H31.5911ZM47.6467 40.1222H32.9924L25.6252 27.4298L32.9924 14.7374H47.6467L55.0139 27.4298L47.6467 40.1222ZM33.6731 38.921H46.9661L53.6125 27.4298L46.9661 15.9386H33.6731L27.0266 27.4298L33.6731 38.921Z" fill="#D8E176"/>
<path d="M74.5928 46.3281C73.8321 46.3281 73.1114 46.0478 72.5108 45.4872L55.6944 29.5517C54.4932 28.4306 54.4532 26.5087 55.5743 25.3076C56.6954 24.1064 58.6173 24.0663 59.8184 25.1874L76.6348 41.123C77.836 42.2441 77.876 44.166 76.7549 45.3671C76.1544 46.0077 75.3536 46.3281 74.5928 46.3281Z" fill="#D8E176"/>
<path d="M74.5929 46.9289C73.672 46.9289 72.7911 46.5686 72.1104 45.9279L55.294 29.9924C54.6134 29.3518 54.213 28.4309 54.1729 27.4699C54.1329 26.509 54.4933 25.5881 55.1339 24.9074C56.4952 23.466 58.7774 23.386 60.2188 24.7473L77.0352 40.6828C78.4767 42.0442 78.5567 44.3264 77.1954 45.7678C76.5147 46.5285 75.5538 46.9289 74.5929 46.9289ZM57.7364 24.9875C57.0958 24.9875 56.4552 25.2278 56.0147 25.7082C55.5743 26.1887 55.3341 26.7893 55.3741 27.4299C55.3741 28.0705 55.6544 28.6711 56.0948 29.1115L72.9112 45.0471C73.3917 45.4875 73.9522 45.7278 74.5929 45.7278C75.2335 45.7278 75.8741 45.4475 76.3145 44.967C77.1954 44.0061 77.1554 42.4446 76.2345 41.5637L59.4181 25.6281C58.9376 25.1877 58.337 24.9875 57.7364 24.9875Z" fill="#D8E176"/>
<path d="M31.2706 15.2982C30.5098 15.2982 29.7891 15.0179 29.1885 14.4573L19.9796 5.76886C18.7784 4.64776 18.7383 2.72589 19.8594 1.52472C20.9805 0.323545 22.9024 0.283506 24.1036 1.4046L33.3126 10.0931C34.5137 11.2142 34.5538 13.136 33.4327 14.3372C32.8721 14.9778 32.0713 15.2982 31.2706 15.2982Z" fill="#D8E176"/>
<path d="M31.2706 15.8985C30.3497 15.8985 29.4688 15.5382 28.7882 14.8975L19.5792 6.20907C18.8985 5.56845 18.4981 4.64755 18.4581 3.68661C18.4181 2.72567 18.7784 1.80478 19.419 1.12411C20.0597 0.443447 20.9806 0.0430572 21.9415 0.00301812C22.9024 -0.0370209 23.8233 0.32333 24.504 0.963955L33.713 9.65243C35.1544 11.0138 35.2345 13.296 33.8731 14.7374C33.2325 15.4581 32.2716 15.8985 31.2706 15.8985ZM22.0216 1.20419C21.381 1.20419 20.7403 1.44442 20.2999 1.92489C19.8595 2.40536 19.6192 3.00595 19.6593 3.64657C19.6593 4.2872 19.9395 4.88778 20.38 5.32821L29.589 14.0167C30.0694 14.4571 30.63 14.6974 31.2706 14.6974C31.9513 14.6974 32.5518 14.4171 32.9923 13.9366C33.9132 12.9757 33.8731 11.4141 32.9122 10.5333L23.7032 1.84481C23.2227 1.40439 22.6222 1.20419 22.0216 1.20419Z" fill="#D8E176"/>
<path d="M92.0094 46.3281C91.3688 46.3281 90.7281 46.1279 90.2076 45.7275C88.8863 44.7266 88.6061 42.8447 89.607 41.5234L101.579 25.6279C102.58 24.3066 104.462 24.0264 105.783 25.0273C107.104 26.0283 107.384 27.9101 106.383 29.2314L94.4117 45.167C93.8112 45.9277 92.9303 46.3281 92.0094 46.3281Z" fill="#D8E176"/>
<path d="M92.0097 46.9288C91.2089 46.9288 90.4482 46.6885 89.8476 46.2081C88.246 45.0069 87.9257 42.7247 89.1269 41.1632L101.099 25.2676C101.699 24.5069 102.54 23.9864 103.461 23.8663C104.422 23.7462 105.383 23.9864 106.143 24.5469C107.745 25.7481 108.065 28.0303 106.864 29.5919L94.8925 45.5274C94.1718 46.4083 93.1308 46.9288 92.0097 46.9288ZM103.981 25.0274C103.861 25.0274 103.741 25.0274 103.621 25.0674C102.98 25.1475 102.42 25.5079 102.019 25.9883L90.0478 41.8839C89.247 42.9249 89.4872 44.4464 90.5282 45.2471C90.9286 45.5674 91.4491 45.7276 91.9697 45.7276C92.7304 45.7276 93.4511 45.4073 93.8915 44.8067L105.863 28.8712C106.664 27.8301 106.424 26.3087 105.383 25.5079C105.022 25.1876 104.502 25.0274 103.981 25.0274Z" fill="#D8E176"/>
<path d="M103.981 92.4535C103.06 92.4535 102.179 92.0531 101.579 91.2523L89.607 75.3168C88.6061 73.9955 88.8863 72.1136 90.2076 71.1127C91.5289 70.1117 93.4108 70.392 94.4117 71.7133L106.383 87.6488C107.384 88.9701 107.104 90.8519 105.783 91.8529C105.262 92.2533 104.622 92.4535 103.981 92.4535Z" fill="#D8E176"/>
<path d="M103.981 93.0539C102.82 93.0539 101.779 92.5334 101.099 91.6125L89.1269 75.6769C87.9257 74.1154 88.246 71.8332 89.8476 70.632C91.4091 69.4308 93.6913 69.7511 94.8925 71.3527L106.864 87.2883C108.065 88.8498 107.745 91.132 106.143 92.3332C105.543 92.8136 104.782 93.0539 103.981 93.0539ZM92.0097 71.1125C91.5292 71.1125 91.0087 71.2726 90.5683 71.5929C89.4872 72.3937 89.287 73.9152 90.0878 74.9562L102.06 90.8918C102.54 91.4924 103.221 91.8527 103.981 91.8527C104.502 91.8527 105.022 91.6926 105.423 91.3722C106.504 90.5715 106.704 89.05 105.903 88.009L93.9316 72.0734C93.4511 71.4328 92.7304 71.1125 92.0097 71.1125Z" fill="#D8E176"/>
<path d="M63.507 90.6559C62.8664 90.6559 62.2258 90.4557 61.6652 90.0153C60.3439 88.9742 60.1437 87.0924 61.1447 85.8112L72.1906 71.7134C73.2316 70.3921 75.1134 70.192 76.3947 71.1929C77.7159 72.2339 77.9161 74.1158 76.9152 75.397L65.8693 89.4948C65.3088 90.2555 64.4279 90.6559 63.507 90.6559Z" fill="#D8E176"/>
<path d="M63.1467 91.7365C62.3459 91.7365 61.5852 91.4563 60.9446 90.9758C59.383 89.7346 59.1028 87.4924 60.3039 85.9309L71.71 71.3526C72.9512 69.7911 75.1934 69.5108 76.7549 70.712C78.3164 71.9532 78.5967 74.1954 77.3955 75.7569L65.9895 90.3352C65.3489 91.216 64.3078 91.7365 63.1467 91.7365ZM74.5528 71.1524C73.8321 71.1524 73.1114 71.4728 72.6709 72.0733L61.2649 86.6516C60.4641 87.6926 60.6643 89.2141 61.6653 90.0149C62.1057 90.3352 62.5862 90.5354 63.1467 90.5354C63.9074 90.5354 64.5881 90.2151 65.0285 89.6145L76.4346 75.0362C77.2354 73.9952 77.0352 72.4737 76.0342 71.673C75.5938 71.3126 75.0733 71.1524 74.5528 71.1524Z" fill="#D8E176"/>
<path d="M124.161 30.433H116.033C114.392 30.433 113.03 29.0717 113.03 27.4301C113.03 25.7885 114.392 24.4271 116.033 24.4271H124.161C125.803 24.4271 127.164 25.7885 127.164 27.4301C127.164 29.0717 125.803 30.433 124.161 30.433Z" fill="#D8E176"/>
<path d="M124.161 31.0333H116.033C114.031 31.0333 112.43 29.4318 112.43 27.4298C112.43 25.4279 114.031 23.8263 116.033 23.8263H124.161C126.163 23.8263 127.765 25.4279 127.765 27.4298C127.765 29.4318 126.163 31.0333 124.161 31.0333ZM116.033 25.0275C114.712 25.0275 113.631 26.1085 113.631 27.4298C113.631 28.7511 114.712 29.8322 116.033 29.8322H124.161C125.482 29.8322 126.563 28.7511 126.563 27.4298C126.563 26.1085 125.482 25.0275 124.161 25.0275H116.033Z" fill="#D8E176"/>
<path d="M11.7314 6.61011H3.60351C1.96191 6.61011 0.600586 5.24878 0.600586 3.60718C0.600586 1.96558 1.96191 0.604248 3.60351 0.604248H11.7314C13.373 0.604248 14.7344 1.96558 14.7344 3.60718C14.7344 5.24878 13.4131 6.61011 11.7314 6.61011Z" fill="#D8E176"/>
<path d="M11.7314 7.21033H3.60351C1.60156 7.21033 0 5.60876 0 3.60681C0 1.60486 1.60156 0.0032959 3.60351 0.0032959H11.7314C13.7334 0.0032959 15.335 1.60486 15.335 3.60681C15.335 5.60876 13.7334 7.21033 11.7314 7.21033ZM3.60351 1.20447C2.28223 1.20447 1.20117 2.28552 1.20117 3.60681C1.20117 4.9281 2.28223 6.00915 3.60351 6.00915H11.7314C13.0527 6.00915 14.1338 4.9281 14.1338 3.60681C14.1338 2.28552 13.0527 1.20447 11.7314 1.20447H3.60351Z" fill="#D8E176"/>
<path d="M124.161 18.1813H103.981C102.34 18.1813 100.979 16.8199 100.979 15.1783C100.979 13.5367 102.34 12.1754 103.981 12.1754H124.161C125.803 12.1754 127.164 13.5367 127.164 15.1783C127.164 16.8199 125.803 18.1813 124.161 18.1813Z" fill="#D8E176"/>
<path d="M124.161 18.7816H103.981C101.979 18.7816 100.378 17.1801 100.378 15.1781C100.378 13.1761 101.979 11.5746 103.981 11.5746H124.161C126.163 11.5746 127.765 13.1761 127.765 15.1781C127.765 17.1801 126.163 18.7816 124.161 18.7816ZM103.981 12.7758C102.66 12.7758 101.579 13.8568 101.579 15.1781C101.579 16.4994 102.66 17.5804 103.981 17.5804H124.161C125.482 17.5804 126.563 16.4994 126.563 15.1781C126.563 13.8568 125.482 12.7758 124.161 12.7758H103.981Z" fill="#D8E176"/>
<path d="M122.439 92.4537H114.312C112.67 92.4537 111.309 91.0924 111.309 89.4508C111.309 87.8092 112.67 86.4479 114.312 86.4479H122.439C124.081 86.4479 125.442 87.8092 125.442 89.4508C125.442 91.0924 124.121 92.4537 122.439 92.4537Z" fill="#D8E176"/>
<path d="M122.439 93.0541H114.312C112.31 93.0541 110.708 91.4525 110.708 89.4506C110.708 87.4486 112.31 85.847 114.312 85.847H122.439C124.441 85.847 126.043 87.4486 126.043 89.4506C126.043 91.4525 124.441 93.0541 122.439 93.0541ZM114.312 87.0482C112.99 87.0482 111.909 88.1293 111.909 89.4506C111.909 90.7718 112.99 91.8529 114.312 91.8529H122.439C123.761 91.8529 124.842 90.7718 124.842 89.4506C124.842 88.1293 123.761 87.0482 122.439 87.0482H114.312Z" fill="#D8E176"/>
</svg>
