<svg width="108" height="108" viewBox="0 0 108 108" fill="none" xmlns="http://www.w3.org/2000/svg">
<path fill-rule="evenodd" clip-rule="evenodd" d="M57.0593 85.5289C57.1394 89.6129 50.6931 89.6129 50.7732 85.5289C50.6931 81.4449 57.1394 81.4449 57.0593 85.5289Z" fill="#D8E176"/>
<path fill-rule="evenodd" clip-rule="evenodd" d="M83.2052 56.3804C79.3614 55.0591 77.3595 61.1851 81.2833 62.3863C85.1271 63.6675 87.129 57.5816 83.2052 56.3804Z" fill="#D8E176"/>
<path fill-rule="evenodd" clip-rule="evenodd" d="M67.8698 21.8667C64.5866 19.4243 60.8229 24.5894 64.1462 26.9517C67.4294 29.4341 71.1931 24.229 67.8698 21.8667Z" fill="#D8E176"/>
<path fill-rule="evenodd" clip-rule="evenodd" d="M30.4336 27.1519C28.0713 23.7887 22.9062 27.5924 25.3486 30.8355C27.6709 34.1588 32.876 30.3951 30.4336 27.1519Z" fill="#D8E176"/>
<path fill-rule="evenodd" clip-rule="evenodd" d="M23.4667 65.79C22.2655 61.8662 16.1796 63.8681 17.5008 67.7519C18.662 71.6357 24.7879 69.6738 23.4667 65.79Z" fill="#D8E176"/>
<path fill-rule="evenodd" clip-rule="evenodd" d="M87.0887 35.0396C100.862 5.731 61.704 -14.809 46.6893 13.5386C24.1874 -7.24166 -7.92396 22.3072 13.1366 45.0894C-13.4494 60.104 3.88756 100.143 33.3963 87.2105C41.6044 117.76 82.9647 111.915 79.5614 80.7242C109.791 83.5669 119.16 40.8853 87.0887 35.0396ZM70.0721 6.61186C95.0164 10.4156 80.6024 52.6167 58.4608 51.3755C61.8641 48.5728 72.2342 37.4419 65.9481 33.9986C61.0233 32.8374 61.3036 40.1646 58.3407 42.607C60.5028 33.9585 57.3397 24.5093 51.534 18.1831C55.3377 8.05326 63.826 5.61088 70.0721 6.61186ZM14.8583 21.2261C26.2294 0.16557 60.743 23.5083 51.1737 44.5689C49.5721 40.4449 42.1649 27.0318 36.9198 31.9966C34.3172 36.3609 41.4842 38.4029 42.8456 42.0064C35.5184 37.522 26.2293 38.0425 18.742 41.7662C11.0946 35.1197 11.7753 26.6314 14.8583 21.2261ZM9.65318 56.8208C18.3817 46.3706 31.7948 40.6451 42.4051 49.4136C38.0008 49.6538 23.0663 52.5767 26.1493 59.063C29.5926 62.9468 33.7967 56.5806 37.7606 56.4605C31.034 62.9068 29.5126 71.4751 31.5545 81.0445C15.0184 90.6538 -1.63783 70.354 9.65318 56.8208ZM56.7791 101.224C38.7215 100.223 29.8329 68.6324 44.1668 59.3833C43.0858 63.6275 41.244 78.6822 48.3709 77.7613C53.1756 75.5992 48.2508 69.4331 49.5321 65.5093C53.4559 74.4781 63.5057 79.563 73.1151 80.4839C75.9579 92.7759 66.6288 101.224 56.7791 101.224ZM88.7303 73.2769C78.6405 76.3199 57.7001 74.2378 54.2967 60.5445C57.8202 62.9068 72.034 69.273 73.1151 62.2662C72.5545 57.0611 65.3075 59.7837 61.9842 57.4615C71.4735 56.5406 79.8016 49.4937 84.286 41.0855C104.546 42.0464 106.788 67.8316 88.7303 73.2769Z" fill="#D8E176"/>
</svg>
