<svg width="90" height="167" viewBox="0 0 90 167" fill="none" xmlns="http://www.w3.org/2000/svg">
<path d="M89.6857 76.8742C89.6857 35.1187 48.5808 2.07933 46.8323 0.692067C45.6671 -0.230689 44.0202 -0.230689 42.8535 0.692067C41.1049 2.07933 0 35.1187 0 76.8742C0 115.186 34.594 146.137 41.6398 152.055V163.217C41.6398 164.986 43.074 166.42 44.8428 166.42C46.6117 166.42 48.0459 164.986 48.0459 163.217V152.055C55.0933 146.137 89.6857 115.186 89.6857 76.8742ZM48.0459 143.433V107.184L66.1116 92.1498C67.4723 91.0174 67.6568 88.9967 66.5245 87.6361C65.3922 86.2754 63.3715 86.0909 62.0124 87.2232L48.0459 98.8499V87.9598L66.1116 72.9236C67.4723 71.7928 67.6568 69.7721 66.5245 68.4115C65.3922 67.0508 63.3715 66.8662 62.0124 67.9986L48.0459 79.6316V65.5384L66.1116 50.5022C67.4723 49.3714 67.6568 47.3507 66.5245 45.99C65.3922 44.6294 63.3715 44.4448 62.0124 45.5771L48.0459 57.2101V32.0314C48.0459 30.2625 46.6117 28.8283 44.8428 28.8283C43.074 28.8283 41.6398 30.2625 41.6398 32.0314V57.2101L27.6749 45.5834C26.3142 44.4511 24.2935 44.6356 23.1612 45.9963C22.0289 47.357 22.215 49.3776 23.5757 50.51L41.6398 65.5447V79.6378L27.6749 68.0111C26.3142 66.8787 24.2935 67.0633 23.1612 68.424C22.0289 69.7846 22.215 71.8053 23.5757 72.9377L41.6398 87.9661V98.8562L27.6749 87.2294C26.3142 86.0971 24.2935 86.2817 23.1612 87.6423C22.0289 89.003 22.215 91.0237 23.5757 92.156L41.6398 107.184V143.433C30.7497 133.216 6.40612 107.028 6.40612 76.8742C6.40612 43.2609 36.7038 14.5131 44.8428 7.40004C52.9819 14.5131 83.2796 43.2609 83.2796 76.8742C83.2796 107.028 58.936 133.216 48.0459 143.433Z" fill="#D8E176"/>
<path d="M76.8063 82.6391C76.775 82.4389 76.7109 82.2434 76.617 82.0619C76.5467 81.8586 76.4497 81.6647 76.3293 81.4864L75.9445 81.0062C74.6604 79.8207 72.6804 79.8207 71.3963 81.0062C71.2587 81.1579 71.1304 81.3175 71.0116 81.4864C70.8911 81.6647 70.7942 81.8586 70.7238 82.0619C70.6315 82.2434 70.5674 82.4389 70.5314 82.6391C70.4954 82.8518 70.4751 83.0645 70.4673 83.2803C70.4782 84.128 70.8098 84.9413 71.3963 85.5544C72.0063 86.1456 72.8211 86.4772 73.6704 86.4834C74.5228 86.4913 75.3424 86.1566 75.9461 85.5544C76.5482 84.9523 76.8829 84.1311 76.8735 83.2803C76.8673 83.0645 76.8454 82.8502 76.8063 82.6391Z" fill="#D8E176"/>
</svg>
