<svg width="413" height="100" viewBox="0 0 413 100" fill="none" xmlns="http://www.w3.org/2000/svg">
<g clip-path="url(#clip0_281_181)">
<path d="M345.816 87.1246C345.816 81.3867 349.984 77.373 355.027 77.373C359.97 77.373 364.201 81.3867 364.201 87.1246C364.201 92.8254 360.216 96.8762 355.027 96.8762C350.011 96.8762 345.816 92.8254 345.816 87.1246ZM342.46 87.1246C342.46 94.6237 348.032 100 355.018 100C361.967 100 367.539 94.5124 367.539 87.1246C367.539 79.6255 361.967 74.2492 355.018 74.2492C347.968 74.2492 342.46 79.848 342.46 87.1246ZM327.786 99.6756H330.996V74.5736H313.915V78.6615C313.915 95.1891 311.234 96.9132 308.59 96.5239V99.6756C309.082 99.7126 309.611 99.7497 310.067 99.7497C313.56 99.7497 317.126 96.5239 317.126 79.162V77.6233H327.777V99.6756H327.786ZM299.47 93.5113C297.774 95.4486 295.339 96.8854 291.919 96.8854C286.164 96.8854 282.325 93.0108 282.325 87.1339C282.325 81.396 285.781 77.3823 291.536 77.3823C294.782 77.3823 296.971 78.5317 298.877 80.469L300.956 78.4205C299.297 76.1587 295.913 74.2584 291.463 74.2584C283.802 74.2584 278.969 79.9221 278.969 87.1339C278.969 94.9481 283.912 100.009 291.709 100.009C295.731 100.009 299.434 98.2573 301.303 95.597L299.47 93.5113ZM258.76 79.0508L263.63 90.4524H253.927L258.76 79.0508ZM246.722 99.6756H250.005L252.723 93.3259H264.825L267.579 99.6756H270.935L260.101 74.4995H257.556L246.722 99.6756ZM212.186 99.6756H215.396V80.2002L224.078 91.7501H224.853L233.289 80.2002V99.6756H236.499V74.5736H233.608L224.543 87.1987L215.159 74.5736H212.195V99.6756H212.186ZM189.797 79.0508L194.667 90.4524H184.964L189.797 79.0508ZM177.76 99.6756H181.043L183.76 93.3259H195.862L198.616 99.6756H201.972L191.138 74.4995H188.594L177.76 99.6756ZM143.224 99.6756H146.434V80.2002L155.116 91.7501H155.891L164.326 80.2002V99.6756H167.536V74.5736H164.646L155.581 87.1987L146.187 74.5736H143.224V99.6756ZM110.028 87.1246C110.028 81.3867 114.196 77.373 119.239 77.373C124.182 77.373 128.413 81.3867 128.413 87.1246C128.413 92.8254 124.428 96.8762 119.239 96.8762C114.232 96.8762 110.028 92.8254 110.028 87.1246ZM106.681 87.1246C106.681 94.6237 112.253 100 119.239 100C126.188 100 131.76 94.5124 131.76 87.1246C131.76 79.6255 126.188 74.2492 119.239 74.2492C112.19 74.2492 106.681 79.848 106.681 87.1246ZM87.2474 77.6233C92.1537 77.6233 93.9138 79.6348 93.9138 82.4249C93.9138 85.4005 91.8345 87.4119 87.0011 87.4119H80.7177V77.6233H87.2474ZM80.7177 99.6756V90.4246H87.065C94.616 90.4246 97.2242 86.5128 97.2242 82.462C97.2242 78.6244 95.3547 74.5736 87.1015 74.5736H77.5076V99.6756H80.7177ZM55.1098 79.0508L59.9797 90.4524H50.2764L55.1098 79.0508ZM43.0811 99.6756H46.3641L49.0818 93.3259H61.1835L63.9376 99.6756H67.2937L56.4504 74.4995H53.9061L43.0811 99.6756ZM413 0.778643H401.263L389.526 17.0004L377.771 0.778643H366.043L383.653 25.102L366.043 49.4346H377.771L389.526 33.2128L401.263 49.4253H413.009L395.399 25.0927L413 0.778643ZM346.272 25.0927C346.272 33.9637 338.693 41.1847 329.364 41.1847C320.053 41.1847 312.475 33.9637 312.475 25.0927C312.475 16.2125 320.053 9.00074 329.364 9.00074C338.693 9.00074 346.272 16.2217 346.272 25.0927ZM356.03 25.0927C356.03 11.2625 344.074 0 329.364 0C314.672 0 302.717 11.2532 302.717 25.0927C302.717 38.9414 314.672 50.2039 329.364 50.2039C344.074 50.2039 356.03 38.9414 356.03 25.0927ZM276.881 36.7723C276.543 37.4305 276.06 37.9959 275.385 38.4872C274.637 39.0527 273.652 39.5069 272.476 39.8591C271.199 40.2299 269.694 40.4153 267.998 40.4153H257.611V28.4112H267.998C269.694 28.4112 271.199 28.5966 272.476 28.9581C273.643 29.3103 274.61 29.7553 275.376 30.33C276.051 30.8306 276.543 31.4053 276.881 32.0819C277.236 32.7772 277.41 33.5373 277.41 34.4179C277.41 35.3078 277.236 36.0771 276.881 36.7723ZM266.959 9.78866C268.39 9.78866 269.685 9.93697 270.752 10.2521C271.719 10.5302 272.522 10.9103 273.133 11.3645C273.652 11.7538 274.044 12.208 274.318 12.7456C274.592 13.274 274.728 13.8951 274.728 14.5903C274.728 15.3133 274.592 15.9251 274.318 16.472C274.044 16.9911 273.671 17.436 273.142 17.8161C272.531 18.2796 271.728 18.6504 270.752 18.9284C269.676 19.2436 268.399 19.4012 266.959 19.4012H257.629V9.78866H266.959ZM277.41 23.591C277.41 23.591 284.477 21.7742 284.477 14.5903C284.477 12.5603 284.021 10.6415 283.128 8.89878C282.243 7.13756 280.93 5.61735 279.261 4.36596C277.683 3.17946 275.805 2.28031 273.661 1.64998C271.637 1.05673 269.375 0.769373 266.949 0.769373H247.871V49.4253H268.007C270.698 49.4253 273.178 49.1009 275.403 48.452C277.738 47.7753 279.79 46.7927 281.486 45.5228C283.31 44.1787 284.733 42.5195 285.708 40.6099C286.675 38.719 287.168 36.6333 287.168 34.4086C287.168 33.9451 287.131 33.4909 287.086 33.046C286.21 24.7405 277.41 23.591 277.41 23.591ZM230.562 9.77939V0.778643H197.412V49.4346H207.17V29.3567H228.693V20.3467H207.17V9.77939H230.562ZM180.094 9.77939V0.778643H146.944V49.4346H156.702V29.3567H178.225V20.3467H156.702V9.77939H180.094ZM127.173 49.4253V0.778643H117.415V49.4346H127.173V49.4253ZM87.8037 0.778643V20.1706C87.8037 30.9881 89.0713 36.4386 89.0713 36.4386C89.0713 36.4386 86.1439 30.1075 79.6781 20.9029L65.5518 0.778643H56.0674V49.4346H65.8254V30.0334C65.8254 19.2158 64.5486 13.7653 64.5486 13.7653C64.5486 13.7653 67.4852 20.0871 73.951 29.2918L88.0773 49.4346H97.5617V0.778643H87.8037ZM33.9797 45.4765C36.9436 42.7976 38.4392 39.3493 38.3297 35.4746C38.0288 25.0834 27.4227 21.5981 22.3339 19.9203C21.6773 19.6978 21.0846 19.5032 20.5647 19.3178C20.2091 19.188 19.7987 19.0397 19.3427 18.8914C14.5823 17.2136 11.8555 15.7861 12.0379 13.4409C12.3936 9.06563 18.7955 9.00074 19.0691 9.00074C24.8692 9.00074 26.7022 11.6611 27.5686 13.6726L36.6244 10.3263C33.7426 3.66148 27.5048 0 19.0691 0C11.2536 0 2.973 4.39377 2.31638 12.7827C1.55945 22.2933 11.6093 25.8065 15.8864 27.3081C16.2603 27.4472 16.6159 27.5677 16.9169 27.6789C17.5279 27.9106 18.2666 28.1424 19.06 28.4112C25.2978 30.4598 28.4897 32.1654 28.59 35.7341C28.6265 37.0597 28.1523 38.135 27.1673 39.0341C25.5349 40.5172 22.6896 41.3144 19.6254 41.1754C15.631 40.99 10.8706 39.0341 9.4388 34.0471L0 36.383C2.29814 44.3456 9.81271 49.7683 19.1512 50.1854C19.5342 50.1947 19.9264 50.2132 20.3003 50.2132C25.69 50.2039 30.6328 48.5169 33.9797 45.4765Z" fill="#040007"/>
</g>
<defs>
<clipPath id="clip0_281_181">
<rect width="413" height="100" fill="white"/>
</clipPath>
</defs>
</svg>
