<svg width="264" height="64" viewBox="0 0 264 64" fill="none" xmlns="http://www.w3.org/2000/svg">
<path d="M221.054 55.7597C221.054 52.0875 223.718 49.5187 226.942 49.5187C230.102 49.5187 232.806 52.0875 232.806 55.7597C232.806 59.4082 230.259 62.0007 226.942 62.0007C223.736 62.0007 221.054 59.4082 221.054 55.7597ZM218.909 55.7597C218.909 60.5591 222.471 64 226.936 64C231.378 64 234.94 60.4879 234.94 55.7597C234.94 50.9603 231.378 47.5195 226.936 47.5195C222.43 47.5195 218.909 51.1027 218.909 55.7597ZM209.529 63.7924H211.581V47.7271H200.663V50.3433C200.663 60.921 198.949 62.0245 197.258 61.7753V63.7924C197.573 63.8161 197.911 63.8398 198.203 63.8398C200.435 63.8398 202.715 61.7753 202.715 50.6637V49.6789H209.523V63.7924H209.529ZM191.429 59.8472C190.344 61.0871 188.788 62.0067 186.602 62.0067C182.924 62.0067 180.469 59.5269 180.469 55.7657C180.469 52.0934 182.679 49.5247 186.357 49.5247C188.432 49.5247 189.831 50.2603 191.05 51.5002L192.379 50.1891C191.318 48.7416 189.155 47.5254 186.31 47.5254C181.414 47.5254 178.324 51.1502 178.324 55.7657C178.324 60.7668 181.484 64.0059 186.468 64.0059C189.039 64.0059 191.405 62.8847 192.6 61.1821L191.429 59.8472ZM165.406 50.5925L168.519 57.8895H162.316L165.406 50.5925ZM157.711 63.7924H159.81L161.547 59.7286H169.283L171.043 63.7924H173.188L166.263 47.6796H164.636L157.711 63.7924ZM135.635 63.7924H137.687V51.3281L143.236 58.7201H143.732L149.124 51.3281V63.7924H151.176V47.7271H149.328L143.534 55.8072L137.535 47.7271H135.641V63.7924H135.635ZM121.323 50.5925L124.436 57.8895H118.234L121.323 50.5925ZM113.628 63.7924H115.727L117.464 59.7286H125.2L126.96 63.7924H129.106L122.18 47.6796H120.554L113.628 63.7924ZM91.5521 63.7924H93.6041V51.3281L99.1538 58.7201H99.6493L105.042 51.3281V63.7924H107.094V47.7271H105.246L99.4511 55.8072L93.4467 47.7271H91.5521V63.7924ZM70.3328 55.7597C70.3328 52.0875 72.9969 49.5187 76.2206 49.5187C79.3801 49.5187 82.085 52.0875 82.085 55.7597C82.085 59.4082 79.5375 62.0007 76.2206 62.0007C73.0202 62.0007 70.3328 59.4082 70.3328 55.7597ZM68.1934 55.7597C68.1934 60.5591 71.7552 64 76.2206 64C80.6626 64 84.2244 60.4879 84.2244 55.7597C84.2244 50.9603 80.6626 47.5195 76.2206 47.5195C71.7144 47.5195 68.1934 51.1027 68.1934 55.7597ZM55.7707 49.6789C58.907 49.6789 60.0321 50.9663 60.0321 52.7519C60.0321 54.6563 58.703 55.9436 55.6133 55.9436H51.5968V49.6789H55.7707ZM51.5968 63.7924V57.8717H55.6541C60.4809 57.8717 62.1482 55.3682 62.1482 52.7757C62.1482 50.3196 60.9531 47.7271 55.6774 47.7271H49.5448V63.7924H51.5968ZM35.2276 50.5925L38.3405 57.8895H32.138L35.2276 50.5925ZM27.5385 63.7924H29.6371L31.3743 59.7286H39.11L40.8705 63.7924H43.0158L36.0845 47.6796H34.4581L27.5385 63.7924ZM264 0.498331H256.497L248.995 10.8802L241.481 0.498331H233.984L245.241 16.0653L233.984 31.6381H241.481L248.995 21.2562L256.497 31.6322H264.006L252.749 16.0593L264 0.498331ZM221.346 16.0593C221.346 21.7367 216.501 26.3582 210.538 26.3582C204.586 26.3582 199.742 21.7367 199.742 16.0593C199.742 10.376 204.586 5.76047 210.538 5.76047C216.501 5.76047 221.346 10.3819 221.346 16.0593ZM227.583 16.0593C227.583 7.20801 219.941 0 210.538 0C201.146 0 193.504 7.20208 193.504 16.0593C193.504 24.9225 201.146 32.1305 210.538 32.1305C219.941 32.1305 227.583 24.9225 227.583 16.0593ZM176.989 23.5343C176.773 23.9555 176.464 24.3174 176.033 24.6318C175.555 24.9937 174.925 25.2844 174.173 25.5098C173.357 25.7471 172.395 25.8658 171.311 25.8658H164.671V18.1832H171.311C172.395 18.1832 173.357 18.3018 174.173 18.5332C174.92 18.7586 175.538 19.0434 176.027 19.4112C176.459 19.7316 176.773 20.0994 176.989 20.5324C177.216 20.9774 177.327 21.4639 177.327 22.0274C177.327 22.597 177.216 23.0894 176.989 23.5343ZM170.647 6.26474C171.562 6.26474 172.39 6.35966 173.072 6.56136C173.69 6.73934 174.203 6.98257 174.593 7.27327C174.925 7.52243 175.176 7.81313 175.351 8.15721C175.526 8.49537 175.613 8.89284 175.613 9.33778C175.613 9.80052 175.526 10.1921 175.351 10.5421C175.176 10.8743 174.937 11.1591 174.599 11.4023C174.208 11.6989 173.695 11.9362 173.072 12.1142C172.384 12.3159 171.568 12.4168 170.647 12.4168H164.683V6.26474H170.647ZM177.327 15.0983C177.327 15.0983 181.845 13.9355 181.845 9.33778C181.845 8.03856 181.554 6.81053 180.982 5.69522C180.417 4.56804 179.577 3.59511 178.511 2.79422C177.502 2.03485 176.301 1.4594 174.931 1.05599C173.637 0.676307 172.191 0.492399 170.641 0.492399H158.445V31.6322H171.317C173.037 31.6322 174.622 31.4245 176.045 31.0093C177.537 30.5762 178.849 29.9473 179.933 29.1346C181.099 28.2744 182.008 27.2125 182.632 25.9904C183.25 24.7801 183.565 23.4453 183.565 22.0215C183.565 21.7249 183.541 21.4342 183.512 21.1494C182.953 15.8339 177.327 15.0983 177.327 15.0983ZM147.381 6.25881V0.498331H126.191V31.6381H132.428V18.7883H146.186V13.0219H132.428V6.25881H147.381ZM115.121 6.25881V0.498331H93.9305V31.6381H100.168V18.7883H113.926V13.0219H100.168V6.25881H115.121ZM81.2922 31.6322V0.498331H75.0547V31.6381H81.2922V31.6322ZM56.1263 0.498331V12.9092C56.1263 19.8324 56.9366 23.3207 56.9366 23.3207C56.9366 23.3207 55.0653 19.2688 50.9322 13.3778L41.9024 0.498331H35.8397V31.6381H42.0772V19.2214C42.0772 12.2981 41.2611 8.80979 41.2611 8.80979C41.2611 8.80979 43.1382 12.8558 47.2713 18.7468L56.3012 31.6381H62.3639V0.498331H56.1263ZM21.7207 29.1049C23.6153 27.3904 24.5713 25.1835 24.5013 22.7037C24.309 16.0534 17.5293 13.8228 14.2764 12.749C13.8567 12.6066 13.4778 12.482 13.1455 12.3634C12.9181 12.2803 12.6558 12.1854 12.3643 12.0905C9.32135 11.0167 7.57834 10.1031 7.69492 8.60215C7.92228 5.802 12.0146 5.76047 12.1895 5.76047C15.897 5.76047 17.0687 7.46311 17.6225 8.75046L23.4112 6.60882C21.5691 2.34334 17.5817 0 12.1895 0C7.19359 0 1.90041 2.81201 1.48069 8.18094C0.996843 14.2677 7.42094 16.5161 10.155 17.4772C10.394 17.5662 10.6213 17.6433 10.8137 17.7145C11.2043 17.8628 11.6765 18.0111 12.1836 18.1832C16.171 19.4943 18.2113 20.5858 18.2754 22.8699C18.2988 23.7182 17.9956 24.4064 17.366 24.9818C16.3226 25.931 14.5038 26.4412 12.5451 26.3522C9.99174 26.2336 6.94875 24.9818 6.03352 21.7901L0 23.2851C1.46903 28.3812 6.27253 31.8517 12.2419 32.1186C12.4868 32.1246 12.7374 32.1364 12.9764 32.1364C16.4217 32.1305 19.5813 31.0508 21.7207 29.1049Z" fill="white"/>
</svg>
