<svg width="114" height="114" viewBox="0 0 114 114" fill="none" xmlns="http://www.w3.org/2000/svg">
<path d="M114 57C114 40.8679 107.547 26.8868 96.7924 16.1321C95.717 15.0566 93.566 15.0566 93.566 16.1321C92.4906 17.2075 92.4906 19.3585 93.566 19.3585C103.245 29.0377 109.698 41.9434 109.698 57C109.698 77.434 97.8679 94.6415 80.6604 103.245C84.9623 97.8679 88.1887 91.4151 88.1887 83.8868C88.1887 67.7547 75.283 53.7736 58.0755 53.7736C44.0943 54.8491 32.2642 43.0189 32.2642 30.1132C32.2642 16.1321 43.0189 5.37736 57 5.37736C63.4528 5.37736 70.9811 6.45283 77.434 9.67924C78.5094 10.7547 80.6604 9.67924 80.6604 8.60377C81.7358 7.5283 80.6604 5.37736 79.5849 5.37736C72.0566 1.07547 64.5283 0 57 0C25.8113 0 0 25.8113 0 57C0 88.1887 25.8113 114 57 114C89.2642 114 114 88.1887 114 57ZM5.37736 57C5.37736 36.566 17.2075 18.283 35.4906 9.67924C30.1132 15.0566 27.9623 22.5849 27.9623 30.1132C27.9623 46.2453 40.8679 60.2264 58.0755 60.2264C72.0566 60.2264 82.8113 70.9811 82.8113 84.9623C82.8113 98.9434 72.0566 109.698 58.0755 109.698C29.0377 108.623 5.37736 86.0377 5.37736 57Z" fill="#89EDED"/>
<path d="M87.1131 15.0566H88.1886C89.264 15.0566 90.3395 15.0566 90.3395 13.9811C91.415 12.9057 91.415 10.7547 89.2641 10.7547V9.67924C88.1886 8.60377 86.0376 9.67924 84.9622 10.7547C84.9622 11.8302 84.9622 12.9057 87.1131 15.0566Z" fill="#89EDED"/>
<path d="M46.2454 30.1132C46.2454 35.4906 50.5472 40.8679 57.0001 40.8679C62.3774 40.8679 67.7548 36.566 67.7548 30.1132C67.7548 24.7358 63.4529 19.3585 57.0001 19.3585C51.6227 20.434 46.2454 24.7358 46.2454 30.1132ZM62.3774 30.1132C62.3774 33.3396 60.2265 35.4906 57.0001 35.4906C53.7737 35.4906 51.6227 33.3396 51.6227 30.1132C51.6227 26.8868 53.7737 24.7358 57.0001 24.7358C60.2265 24.7358 62.3774 27.9623 62.3774 30.1132Z" fill="#89EDED"/>
<path d="M67.7548 83.8868C67.7548 78.5094 63.4529 73.1321 57.0001 73.1321C55.9246 73.1321 54.8491 74.2075 54.8491 75.283C54.8491 76.3585 55.9246 77.434 57.0001 77.434C60.2265 77.434 62.3774 79.5849 62.3774 82.8113C62.3774 86.0377 60.2265 88.1887 57.0001 88.1887C53.7737 88.1887 51.6227 87.1132 51.6227 83.8868C51.6227 82.8113 50.5472 81.7358 49.4718 81.7358C48.3963 81.7358 46.2454 82.8113 46.2454 83.8868C46.2454 89.2642 50.5472 94.6415 57.0001 94.6415C63.4529 94.6415 67.7548 89.2642 67.7548 83.8868Z" fill="#89EDED"/>
</svg>
