<svg width="80" height="126" viewBox="0 0 80 126" fill="none" xmlns="http://www.w3.org/2000/svg">
<path d="M75.8013 73.8391L38.9103 30.6736C33.6859 23.9985 32.4038 13.4137 35.7051 3.68719C36.1859 2.22503 35.4167 0.635726 33.9103 0.127149C32.4359 -0.349642 30.8333 0.413224 30.3205 1.90717C28.4936 7.34259 27.8205 13.1277 28.3974 18.6266C29.0385 24.5706 31.1218 29.9425 34.4551 34.17L34.4872 34.2018C34.4872 34.2336 34.5192 34.2336 34.5192 34.2654L71.4744 77.4945C74.0064 80.4506 74.9039 84.392 73.9103 88.0156C72.8846 91.7028 69.968 94.7543 66.3141 95.9939L55 99.8083C50.2564 101.398 46.9872 105.816 46.891 110.774C46.7949 115.225 47.3718 119.643 48.5256 123.934C48.8782 125.174 50 126 51.25 126C51.5064 126 51.7308 125.968 51.9872 125.905C53.4936 125.491 54.391 123.966 53.9744 122.472C52.9487 118.689 52.468 114.811 52.5321 110.902C52.5962 108.295 54.2949 105.975 56.7949 105.148L68.141 101.302C73.6218 99.4586 77.7885 95.0722 79.359 89.5414C80.8974 84.0742 79.5513 78.2255 75.8013 73.8391Z" fill="#89EDED"/>
<path d="M47.6924 95.6443C48.4616 95.8986 49.2629 96.0258 50.0321 96.0258C52.8526 96.0258 55.4808 94.3729 56.5385 91.6711C57.9488 88.1746 56.3783 84.2649 52.9808 82.7074C47.6924 80.2917 41.6988 80.3552 36.5065 82.9617C31.6026 85.3774 28.077 89.6368 26.6667 94.7543C22.3398 97.4879 16.827 97.6151 12.3718 94.9768C7.59619 92.1479 5.03209 86.8396 5.83337 81.3724C6.63465 75.937 10.609 71.5187 15.9616 70.1519C17.468 69.7705 18.3975 68.2447 18.0129 66.7508C17.6282 65.2568 16.0898 64.3351 14.5834 64.7165C6.98721 66.6554 1.37824 72.8537 0.256443 80.5459C-0.865352 88.2382 2.75644 95.7715 9.48721 99.7447C12.5321 101.557 15.9295 102.447 19.327 102.447C23.3654 102.447 27.4359 101.175 30.8334 98.664L30.8654 98.6322C30.8975 98.6322 30.8975 98.6004 30.9295 98.6004C35.6411 94.8179 41.9231 93.7054 47.6924 95.6443ZM39.0065 87.9521C42.6603 86.1403 46.8911 86.0767 50.609 87.7932C51.2821 88.111 51.5706 88.8739 51.2821 89.605C51.0257 90.2725 50.2565 90.5904 49.5193 90.3361C45.0962 88.8421 40.4808 88.715 36.1539 89.8275C36.9872 89.0964 37.9488 88.4607 39.0065 87.9521Z" fill="#89EDED"/>
</svg>
