<svg width="118" height="99" viewBox="0 0 118 99" fill="none" xmlns="http://www.w3.org/2000/svg">
<path d="M36.736 59.625C34.5096 59.625 33.3964 60.75 33.3964 61.875V75.375C33.3964 76.5 34.5096 77.625 35.6228 77.625H46.7549C47.8681 77.625 48.9813 76.5 48.9813 75.375V65.25H59.0002C60.1134 65.25 61.2266 64.125 61.2266 63V51.75C61.2266 50.625 60.1134 49.5 59.0002 49.5H51.2077V37.125C51.2077 36 50.0945 34.875 48.9813 34.875H37.8492C34.5096 34.875 33.3964 36 33.3964 37.125V47.25H23.3775C22.2643 47.25 21.1511 49.5 21.1511 50.625V61.875C21.1511 63 22.2643 64.125 23.3775 64.125C24.4907 64.125 25.604 63 25.604 61.875V52.875H35.6228C36.736 52.875 37.8492 51.75 37.8492 50.625V40.5H43.4153V50.625C43.4153 51.75 44.5285 52.875 45.6417 52.875H55.6606V58.5H47.8681C46.7549 58.5 45.6417 59.625 45.6417 60.75V70.875H38.9624V61.875C38.9624 60.75 37.8492 59.625 36.736 59.625Z" fill="#89EDED"/>
<path d="M118 2.25C118 1.125 116.887 0 115.774 0C114.66 0 113.547 1.125 113.547 2.25C112.434 6.75 109.094 6.75 102.415 7.875C96.8491 7.875 92.3963 9 89.0567 11.25C80.151 16.875 81.2642 27 82.3774 32.625C80.151 34.875 79.0378 38.25 80.151 42.75C76.8114 38.25 71.2454 33.75 62.3397 32.625C61.2265 32.625 61.2265 33.75 60.1133 33.75C60.1133 33.75 59.0001 34.875 59.0001 36C59.0001 36 57.8869 52.875 80.151 55.125C79.0378 64.125 76.8114 70.875 75.6982 70.875C72.3586 79.875 65.6793 86.625 57.8869 90C48.9812 94.5 38.9624 94.5 28.9435 91.125C20.0378 87.75 13.3586 81 8.90576 72C4.45293 63 4.45293 52.875 7.79255 42.75C11.1322 32.625 17.8114 27 26.7171 22.5C36.7359 18 47.868 18 57.8869 22.5C59.0001 23.625 61.2265 22.5 61.2265 21.375C62.3397 20.25 61.2265 18 60.1133 18C48.9812 12.375 35.6227 12.375 24.4907 18C14.4718 22.5 6.67934 30.375 2.22651 41.625C-2.22632 52.875 -1.11311 64.125 3.33972 74.25C7.79255 84.375 16.6982 92.25 26.7171 96.75C31.1699 99 36.7359 99 41.1888 99C46.7548 99 53.4341 97.875 59.0001 95.625C69.019 91.125 75.6982 83.25 80.151 73.125C80.151 72 86.8303 57.375 84.6039 42.75C83.4907 37.125 86.8303 34.875 93.5095 31.5C96.8491 29.25 101.302 27 104.642 23.625C105.755 22.5 105.755 21.375 104.642 20.25C103.528 19.125 102.415 19.125 101.302 20.25C97.9624 22.5 94.6227 24.75 91.2831 25.875C90.1699 27 89.0567 28.125 86.8303 28.125C86.8303 24.75 86.8303 19.125 92.3963 15.75C94.6227 13.5 99.0756 13.5 102.415 13.5C105.755 13.5 110.208 12.375 113.547 10.125C113.547 16.875 113.547 25.875 107.981 31.5C104.642 34.875 101.302 36 96.8491 34.875C95.7359 34.875 93.5095 36 93.5095 37.125C93.5095 38.25 94.6227 40.5 95.7359 40.5H96.8491C101.302 40.5 105.755 38.25 110.208 34.875C121.34 24.75 118 3.375 118 2.25ZM65.6793 39.375C71.2454 40.5 75.6982 46.125 77.9246 49.5C69.019 47.25 66.7925 42.75 65.6793 39.375Z" fill="#89EDED"/>
<path d="M66.7927 28.125C66.7927 28.125 67.9059 29.25 69.0191 29.25C70.1323 29.25 70.1323 29.25 71.2455 28.125C72.3587 27 72.3587 24.75 71.2455 24.75L70.1323 23.625C67.9059 22.5 66.7927 22.5 65.6795 23.625C64.5663 24.75 64.5662 27 66.7927 28.125C65.6795 28.125 66.7927 28.125 66.7927 28.125Z" fill="#89EDED"/>
</svg>
