<svg width="20" height="22" viewBox="0 0 20 22" fill="none" xmlns="http://www.w3.org/2000/svg">
<path d="M20 9.50944C17.9018 9.50944 15.86 8.88004 14.2875 7.81463L14.2751 15.0577C14.2713 18.7014 11.073 21.6529 7.13139 21.6493C3.18975 21.6458 -0.00385632 18.69 3.49506e-06 15.0456C0.00386331 11.4019 3.2021 8.45045 7.14374 8.45402C7.4587 8.45402 7.77289 8.474 8.08554 8.51254V12.0692C6.30076 11.5818 4.42566 12.5244 3.89841 14.1743C3.37116 15.8241 4.39092 17.5575 6.1757 18.0449C7.96048 18.5323 9.83558 17.5896 10.3628 15.9398C10.4547 15.6536 10.501 15.356 10.501 15.0577V0.728516H14.4589C14.4589 3.55725 16.9392 5.85007 19.9992 5.85007L20 9.50944Z" fill="white"/>
</svg>
