<svg width="23" height="12" viewBox="0 0 23 12" fill="none" xmlns="http://www.w3.org/2000/svg">
<path fill-rule="evenodd" clip-rule="evenodd" d="M11.2192 11.9373H12.576C12.576 11.9373 13.0098 11.8767 13.2211 11.6749C13.4324 11.4832 13.4324 11.1603 13.4324 11.1603C13.4324 11.1603 13.4324 9.47514 14.2887 9.21278C15.1451 8.95042 16.2128 10.8374 17.3583 11.5437C18.2147 12.0583 18.8597 11.9978 18.8597 11.9978L21.9293 11.9373C21.9293 11.9373 23.5753 11.8767 22.7856 10.7062C22.7189 10.575 22.3519 9.85858 20.4946 8.30462C18.5706 6.68002 18.8486 6.94238 21.1396 4.15735C22.5632 2.41167 23.1415 1.37233 22.9302 0.918251C22.7856 0.464171 21.718 0.59535 21.718 0.59535H18.2147C18.2147 0.59535 17.9255 0.534806 17.7809 0.655894C17.5696 0.787073 17.4918 0.978795 17.4918 0.978795C17.4918 0.978795 16.9246 2.2704 16.2017 3.44092C14.6335 5.8425 14.0552 5.97368 13.7772 5.77186C13.21 5.44896 13.3434 4.40962 13.3434 3.63264C13.3434 1.3017 13.6993 0.393536 12.6316 0.131179C12.2757 0.0706348 11.9866 0 10.9856 0C9.77339 0 8.6946 2.4058e-07 8.1274 0.262358C7.69366 0.45408 7.41562 0.847616 7.62693 0.847616C7.83824 0.90816 8.33871 0.978795 8.62787 1.3017C8.98376 1.75578 8.98376 2.72448 8.98376 2.72448C8.98376 2.72448 9.19507 5.44896 8.48329 5.77186C7.98282 6.03422 7.33777 5.5095 5.98094 3.37028C5.26915 2.2704 4.76868 1.03934 4.76868 1.03934C4.76868 1.03934 4.6241 0.776981 4.47952 0.716437C4.27933 0.595349 4.0013 0.524715 4.0013 0.524715H0.709309C0.709309 0.524715 0.208838 0.524715 0.064258 0.716437C-0.0803225 0.90816 0.064258 1.23106 0.064258 1.23106C0.064258 1.23106 2.63334 6.74057 5.56944 9.46505C8.21637 12.0684 11.2192 11.9373 11.2192 11.9373Z" fill="white"/>
</svg>
